<mxfile host="app.diagrams.net" modified="2023-05-12T12:03:22.824Z" agent="Mozilla/5.0 (Windows NT 10.0; Win64; x64) AppleWebKit/537.36 (KHTML, like Gecko) Chrome/113.0.0.0 Safari/537.36" version="21.2.9" etag="5RBVdrEutest7T2BZ6Hz" type="github">
  <diagram name="Page-1" id="sXR07u2U74W99U5jpyoj">
    <mxGraphModel>
      <root>
        <mxCell id="0" />
        <mxCell id="1" parent="0" />
      </root>
    </mxGraphModel>
  </diagram>
</mxfile>
